<svg width="1200" height="210" viewBox="0 0 1200 210" fill="none" xmlns="http://www.w3.org/2000/svg">
<path d="M1786 507.008C1786 576.842 1753.29 643.412 1694.04 704.006C1634.79 764.601 1549.04 819.194 1443.03 865.052C1231.02 956.768 938.087 1013.51 614.5 1013.51C290.913 1013.51 -2.01666 956.768 -214.031 865.052C-320.038 819.194 -405.794 764.601 -465.041 704.006C-524.285 643.412 -557 576.842 -557 507.008C-557 437.173 -524.285 370.603 -465.041 310.01C-405.794 249.415 -320.038 194.822 -214.031 148.964C-2.01666 57.2477 290.913 0.507817 614.5 0.507817C938.087 0.507817 1231.02 57.2477 1443.03 148.964C1549.04 194.822 1634.79 249.415 1694.04 310.01C1753.29 370.603 1786 437.173 1786 507.008Z" fill="url(#paint0_radial_40_3735)" stroke="#B48CDE"/>
<defs>
<radialGradient id="paint0_radial_40_3735" cx="0" cy="0" r="1" gradientUnits="userSpaceOnUse" gradientTransform="translate(615.999 542) rotate(90) scale(521 1204.36)">
<stop offset="0.822011"/>
<stop offset="1" stop-color="#9560EB"/>
</radialGradient>
</defs>
</svg>
