<svg width="57" height="57" viewBox="0 0 57 57" fill="none" xmlns="http://www.w3.org/2000/svg">
<rect x="0.5" y="0.5" width="56" height="56" rx="10" fill="white"/>
<path fill-rule="evenodd" clip-rule="evenodd" d="M21.9375 21C21.0746 21 20.375 21.6996 20.375 22.5625V33.5C20.375 34.8807 21.4943 36 22.875 36H35.375C33.9943 36 32.875 34.8807 32.875 33.5V22.5625C32.875 21.6996 32.1754 21 31.3125 21H21.9375ZM28.5 26.625C28.1548 26.625 27.875 26.9048 27.875 27.25C27.875 27.5952 28.1548 27.875 28.5 27.875H29.75C30.0952 27.875 30.375 27.5952 30.375 27.25C30.375 26.9048 30.0952 26.625 29.75 26.625H28.5ZM27.875 24.75C27.875 24.4048 28.1548 24.125 28.5 24.125H29.75C30.0952 24.125 30.375 24.4048 30.375 24.75C30.375 25.0952 30.0952 25.375 29.75 25.375H28.5C28.1548 25.375 27.875 25.0952 27.875 24.75ZM23.5 29.125C23.1548 29.125 22.875 29.4048 22.875 29.75C22.875 30.0952 23.1548 30.375 23.5 30.375H29.75C30.0952 30.375 30.375 30.0952 30.375 29.75C30.375 29.4048 30.0952 29.125 29.75 29.125H23.5ZM22.875 32.25C22.875 31.9048 23.1548 31.625 23.5 31.625H29.75C30.0952 31.625 30.375 31.9048 30.375 32.25C30.375 32.5952 30.0952 32.875 29.75 32.875H23.5C23.1548 32.875 22.875 32.5952 22.875 32.25ZM23.5 24.125C23.1548 24.125 22.875 24.4048 22.875 24.75V27.25C22.875 27.5952 23.1548 27.875 23.5 27.875H26C26.3452 27.875 26.625 27.5952 26.625 27.25V24.75C26.625 24.4048 26.3452 24.125 26 24.125H23.5Z" fill="#892FFE"/>
<path d="M34.125 24.125H35.6875C36.2053 24.125 36.625 24.5447 36.625 25.0625V33.5C36.625 34.1904 36.0654 34.75 35.375 34.75C34.6846 34.75 34.125 34.1904 34.125 33.5V24.125Z" fill="#892FFE"/>
</svg>
