<svg width="56" height="57" viewBox="0 0 56 57" fill="none" xmlns="http://www.w3.org/2000/svg">
<rect y="0.5" width="56" height="56" rx="10" fill="white"/>
<path fill-rule="evenodd" clip-rule="evenodd" d="M22.4474 36.5982C22.2978 36.5836 22.1494 36.5631 22.003 36.5369C21.783 36.4975 21.6007 36.3436 21.5251 36.1332C21.4494 35.9229 21.4918 35.6882 21.6363 35.5176C21.9724 35.1209 22.2105 34.6404 22.3152 34.1124C22.3342 34.0164 22.2964 33.8485 22.1031 33.6603C20.7288 32.3226 19.875 30.5071 19.875 28.5C19.875 24.3078 23.565 21 28 21C32.435 21 36.125 24.3078 36.125 28.5C36.125 32.6922 32.435 36 28 36C27.3057 36 26.6308 35.9195 25.986 35.7678C25.1204 36.3109 24.0961 36.625 23 36.625C22.8137 36.625 22.6293 36.6159 22.4474 36.5982Z" fill="#892FFE"/>
</svg>
