<svg width="57" height="57" viewBox="0 0 57 57" fill="none" xmlns="http://www.w3.org/2000/svg">
<rect x="0.5" y="0.5" width="56" height="56" rx="10" fill="white"/>
<path fill-rule="evenodd" clip-rule="evenodd" d="M24.75 23.5C24.75 21.4289 26.4289 19.75 28.5 19.75C30.5711 19.75 32.25 21.4289 32.25 23.5C32.25 25.5711 30.5711 27.25 28.5 27.25C26.4289 27.25 24.75 25.5711 24.75 23.5Z" fill="#892FFE"/>
<path fill-rule="evenodd" clip-rule="evenodd" d="M21.626 35.2544C21.6905 31.513 24.7433 28.5 28.5 28.5C32.2568 28.5 35.3097 31.5131 35.374 35.2547C35.3782 35.5028 35.2353 35.73 35.0097 35.8335C33.0273 36.7432 30.8221 37.25 28.5003 37.25C26.1782 37.25 23.9729 36.7431 21.9903 35.8332C21.7647 35.7297 21.6218 35.5026 21.626 35.2544Z" fill="#892FFE"/>
</svg>
