<svg width="57" height="57" viewBox="0 0 57 57" fill="none" xmlns="http://www.w3.org/2000/svg">
<rect x="0.5" y="0.5" width="56" height="56" rx="10" fill="white"/>
<path fill-rule="evenodd" clip-rule="evenodd" d="M28.5 20.375C24.0127 20.375 20.375 24.0127 20.375 28.5C20.375 32.9873 24.0127 36.625 28.5 36.625C32.9873 36.625 36.625 32.9873 36.625 28.5C36.625 24.0127 32.9873 20.375 28.5 20.375ZM26 24.75C25.6548 24.75 25.375 25.0298 25.375 25.375C25.375 25.7202 25.6548 26 26 26H27.25C28.0664 26 28.7609 26.5218 29.0183 27.25H26C25.6548 27.25 25.375 27.5298 25.375 27.875C25.375 28.2202 25.6548 28.5 26 28.5H29.0183C28.7609 29.2282 28.0664 29.75 27.25 29.75H26C25.7472 29.75 25.5193 29.9023 25.4226 30.1358C25.3258 30.3694 25.3793 30.6382 25.5581 30.8169L28.0581 33.3169C28.3021 33.561 28.6979 33.561 28.9419 33.3169C29.186 33.0729 29.186 32.6771 28.9419 32.4331L27.4991 30.9902C28.8987 30.8798 30.039 29.8473 30.3125 28.5H31C31.3452 28.5 31.625 28.2202 31.625 27.875C31.625 27.5298 31.3452 27.25 31 27.25H30.3125C30.2187 26.7882 30.0232 26.3634 29.7502 26H31C31.3452 26 31.625 25.7202 31.625 25.375C31.625 25.0298 31.3452 24.75 31 24.75H26Z" fill="#892FFE"/>
</svg>
