<svg width="16" height="17" viewBox="0 0 16 17" fill="none" xmlns="http://www.w3.org/2000/svg">
<path d="M12.9 14.1158L8.88333 10.0991C8.55 10.388 8.16134 10.613 7.71735 10.7741C7.27336 10.9352 6.80091 11.0158 6.3 11.0158C5.0982 11.0158 4.08108 10.5991 3.24865 9.76576C2.41622 8.93242 2 7.92687 2 6.74909C2 5.57131 2.41667 4.56576 3.25 3.73242C4.08333 2.89909 5.09167 2.48242 6.275 2.48242C7.45833 2.48242 8.46389 2.89909 9.29167 3.73242C10.1194 4.56576 10.5333 5.57214 10.5333 6.75159C10.5333 7.2277 10.4556 7.68798 10.3 8.13242C10.1444 8.57687 9.91111 8.99353 9.6 9.38242L13.65 13.3991C13.75 13.4929 13.8 13.608 13.8 13.7444C13.8 13.8809 13.7449 14.0042 13.6348 14.1143C13.5338 14.2153 13.4099 14.2658 13.263 14.2658C13.1161 14.2658 12.9951 14.2158 12.9 14.1158ZM6.28333 10.0158C7.18611 10.0158 7.95347 9.69631 8.58542 9.05742C9.21736 8.41853 9.53333 7.64909 9.53333 6.74909C9.53333 5.84909 9.21736 5.07964 8.58542 4.44076C7.95347 3.80187 7.18611 3.48242 6.28333 3.48242C5.3713 3.48242 4.59607 3.80187 3.95763 4.44076C3.31921 5.07964 3 5.84909 3 6.74909C3 7.64909 3.31921 8.41853 3.95763 9.05742C4.59607 9.69631 5.3713 10.0158 6.28333 10.0158Z" fill="white" fill-opacity="0.8"/>
</svg>
